# xmcd
#
# Track frame offsets: 
#        150
#        15903
#        34243
#        54760
#        73475
#        88028
#        105778
#        121418
#        136573
#        153788
#        173628
#
# Disc length: 2561 seconds
#
# Revision: 0
# Processed by: cddbd v1.5.2PL0 Copyright (c) Steve Scherf et al.
# Submitted via: ExactAudioCopy v1.0b4
#
DISCID=7809ff0b
DTITLE=Al Miller - Better Blues And Ballads
DYEAR=2012
DGENRE=Blues
TTITLE0=House Of The Rising Sun
TTITLE1=St. James Infirmary
TTITLE2=Willow Weep For Me
TTITLE3=Nobody Knows When You're Down And Out
TTITLE4=Good Morning Blues
TTITLE5=Summertime
TTITLE6=Unforgettable
TTITLE7=Wee Small Hours Of The Morning
TTITLE8=And I Love You So 
TTITLE9=I Left My Heart In San Francisco
TTITLE10=St. Louis Blues
EXTD=
EXTT0=
EXTT1=
EXTT2=
EXTT3=
EXTT4=
EXTT5=
EXTT6=
EXTT7=
EXTT8=
EXTT9=
EXTT10=
PLAYORDER=
